<?xml version="1.0" encoding="UTF-8"?>
<svg version="1.1" xmlns="http://www.w3.org/2000/svg" width="695" height="359">
<path d="M0 0 C0.97814163 -0.00960754 1.95628326 -0.01921509 2.96406555 -0.02911377 C4.01514999 -0.03336365 5.06623444 -0.03761353 6.14916992 -0.04199219 C7.23671066 -0.04769226 8.3242514 -0.05339233 9.44474792 -0.05926514 C11.74538197 -0.06870727 14.0460295 -0.07524599 16.34667969 -0.07910156 C19.85595444 -0.08880172 23.36464208 -0.11983102 26.8737793 -0.15136719 C29.11140604 -0.15789815 31.34903695 -0.16314826 33.58666992 -0.16699219 C35.15418755 -0.18551239 35.15418755 -0.18551239 36.75337219 -0.20440674 C43.11765643 -0.18506704 48.8113673 -0.01157536 53.62695312 4.68115234 C57.51420082 11.49796167 60.35637938 18.76060103 63.25463867 26.03613281 C64.05287041 28.03183254 64.85332843 30.0265205 65.6599884 32.01882935 C66.3848267 33.80996121 67.10157428 35.60436099 67.81787109 37.39892578 C68.90412271 40.23337612 68.90412271 40.23337612 71.06713867 42.16113281 C71.40447021 41.33500488 71.74180176 40.50887695 72.08935547 39.65771484 C73.36296358 36.54396635 74.6400666 33.43169694 75.91943359 30.3203125 C76.46865535 28.98265812 77.01654587 27.64445623 77.56298828 26.30566406 C86.61886669 4.12664747 86.61886669 4.12664747 91.06713867 1.16113281 C98.07017819 0.38301731 98.07017819 0.38301731 101.62963867 3.16113281 C103.77188411 7.6319059 102.84370122 11.71018602 101.39013672 16.29785156 C100.52000337 18.60921622 99.58845348 20.8851303 98.62963867 23.16113281 C98.27619385 24.022146 97.92274902 24.88315918 97.55859375 25.77026367 C96.40521881 28.5716749 95.23734088 31.36671291 94.06713867 34.16113281 C93.2777333 36.05812559 92.48867389 37.95526236 91.69995117 39.85253906 C90.46765761 42.81347009 89.23370001 45.77366716 87.99560547 48.73217773 C84.76318373 56.46011813 81.59368752 64.21240469 78.44213867 71.97363281 C77.07957753 75.31992618 75.71589846 78.66575992 74.35131836 82.01123047 C73.51720142 84.05719564 72.68444094 86.10371455 71.85327148 88.15087891 C70.76553138 90.8241775 69.66800176 93.49321686 68.56713867 96.16113281 C68.25309082 96.9381958 67.93904297 97.71525879 67.61547852 98.51586914 C64.98810012 104.83408861 64.98810012 104.83408861 62.06713867 107.16113281 C55.0516688 107.94062946 55.0516688 107.94062946 51.98510742 105.51269531 C49.79495201 102.82741311 48.60677092 100.31077238 47.31713867 97.09863281 C46.88916992 96.05578125 46.46120117 95.01292969 46.02026367 93.93847656 C45.06713867 91.16113281 45.06713867 91.16113281 45.06713867 88.16113281 C44.45627914 88.16779465 43.84541962 88.17445648 43.21604919 88.18132019 C36.84053832 88.24784939 30.46512658 88.29300637 24.08935547 88.32592773 C21.71203605 88.34098533 19.33474428 88.3614357 16.95751953 88.38745117 C13.53435429 88.42396684 10.11155736 88.4408899 6.68823242 88.45410156 C5.10189247 88.47732735 5.10189247 88.47732735 3.48350525 88.50102234 C-2.42819738 88.50236121 -6.76363755 88.13780113 -11.93286133 85.16113281 C-14.3111126 81.5937559 -14.23530088 79.04304886 -14.23925781 74.92333984 C-14.24758133 74.18966187 -14.25590485 73.45598389 -14.26448059 72.70007324 C-14.28858967 70.27297672 -14.29735372 67.8461489 -14.30395508 65.41894531 C-14.3129208 63.73127155 -14.32204263 62.04359862 -14.33131409 60.35592651 C-14.34780914 56.81685453 -14.35550511 53.27787721 -14.35839844 49.73876953 C-14.36378257 45.20675265 -14.40146085 40.67562697 -14.4471426 36.14386177 C-14.47690535 32.65738691 -14.48412182 29.17112684 -14.48512459 25.68453598 C-14.48932856 24.01397495 -14.50177008 22.34341338 -14.52264214 20.67297745 C-14.54954192 18.33389275 -14.54473724 15.99687595 -14.53222656 13.65771484 C-14.54706085 12.96974823 -14.56189514 12.28178162 -14.57717896 11.57296753 C-14.52014702 7.82280159 -13.99226329 6.23659828 -11.645401 3.25509644 C-7.6815514 0.19517553 -4.89558791 0.03894802 0 0 Z M3.06713867 17.16113281 C3.06713867 34.98113281 3.06713867 52.80113281 3.06713867 71.16113281 C5.37713867 71.16113281 7.68713867 71.16113281 10.06713867 71.16113281 C10.06713867 53.34113281 10.06713867 35.52113281 10.06713867 17.16113281 C7.75713867 17.16113281 5.44713867 17.16113281 3.06713867 17.16113281 Z M35.06713867 17.16113281 C34.73713867 17.82113281 34.40713867 18.48113281 34.06713867 19.16113281 C34.87216681 21.52024352 35.74397725 23.76522198 36.71557617 26.05566406 C37.00376221 26.75162186 37.29194824 27.44757965 37.58886719 28.16462708 C38.5324089 30.43752285 39.4870643 32.70556183 40.44213867 34.97363281 C41.08805321 36.52271188 41.73339742 38.07202889 42.37817383 39.62158203 C47.19252434 51.16947745 52.08145586 62.68614857 57.06713867 74.16113281 C57.72713867 74.16113281 58.38713867 74.16113281 59.06713867 74.16113281 C61.06131621 68.17860019 60.12126563 63.41379928 57.68823242 57.73144531 C57.18203369 56.53100586 56.67583496 55.33056641 56.15429688 54.09375 C55.60467079 52.82443167 55.05478019 51.55522784 54.50463867 50.28613281 C53.95158003 48.98619522 53.39974563 47.68573612 52.84912109 46.38476562 C51.76205589 43.81931343 50.66929972 41.25641187 49.57202148 38.6953125 C47.32989078 33.42972457 45.17912998 28.12809742 43.03564453 22.82177734 C41.92524387 19.76254432 41.92524387 19.76254432 40.06713867 17.16113281 C38.40096752 17.12049449 36.73325772 17.11841181 35.06713867 17.16113281 Z M27.06713867 49.16113281 C27.03826053 52.64028222 27.0203818 56.11940112 27.00463867 59.59863281 C26.99625977 60.59185547 26.98788086 61.58507812 26.97924805 62.60839844 C26.97602539 63.55263672 26.97280273 64.496875 26.96948242 65.46972656 C26.96424561 66.3442749 26.95900879 67.21882324 26.95361328 68.11987305 C26.83929059 70.15553487 26.83929059 70.15553487 28.06713867 71.16113281 C30.73772718 71.30228443 33.39146105 71.20360389 36.06713867 71.16113281 C35.5185637 65.89210408 34.26811554 61.69051252 32.12963867 56.78613281 C31.86473633 56.15835938 31.59983398 55.53058594 31.3269043 54.88378906 C29.94960394 51.36930447 29.94960394 51.36930447 27.06713867 49.16113281 Z " fill="#030303" transform="translate(287.932861328125,89.8388671875)"/>
<path d="M0 0 C4.91324143 3.15314985 8.46480404 7.96863088 10.30078125 13.4765625 C10.44781189 15.91105068 10.52183464 18.3503102 10.55078125 20.7890625 C10.5765625 22.08457031 10.60234375 23.38007813 10.62890625 24.71484375 C10.10983825 30.66558764 7.43490527 35.2307054 3.30078125 39.4765625 C-4.40074973 44.12242532 -12.04738393 45.91817175 -20.98828125 43.98046875 C-27.22672478 41.84879982 -31.97266884 38.39770323 -35.07421875 32.4765625 C-37.98564215 25.13683963 -37.98564215 16.81628537 -35.07421875 9.4765625 C-31.9764268 3.56259605 -27.22145633 0.05928981 -20.9609375 -2.015625 C-13.71045077 -3.64354085 -6.78756262 -3.00947753 0 0 Z M-18.01171875 16.6640625 C-19.92431064 19.30506391 -19.92431064 19.30506391 -19.69921875 22.1015625 C-18.47201202 25.01617849 -17.52777219 26.06228578 -14.69921875 27.4765625 C-11.49983179 27.39852867 -10.16792331 26.91402009 -7.82421875 24.7265625 C-6.49794159 22.51359204 -6.49794159 22.51359204 -6.76171875 19.9140625 C-7.90421977 16.94355984 -8.91816019 15.98628 -11.69921875 14.4765625 C-15.74544112 14.01842926 -15.74544112 14.01842926 -18.01171875 16.6640625 Z " fill="#040404" transform="translate(377.69921875,216.5234375)"/>
<path d="M0 0 C3.33761045 2.15090451 4.73470933 3.20412799 6 7 C6.1464714 8.55266653 6.24694074 10.10995662 6.31640625 11.66796875 C6.35830078 12.56064453 6.40019531 13.45332031 6.44335938 14.37304688 C6.48267578 15.30181641 6.52199219 16.23058594 6.5625 17.1875 C6.60568359 18.12787109 6.64886719 19.06824219 6.69335938 20.03710938 C6.79938665 22.35792854 6.90145029 24.67885325 7 27 C7.99 27 8.98 27 10 27 C10.01458252 26.42032471 10.02916504 25.84064941 10.04418945 25.2434082 C10.11898528 22.59912447 10.21553898 19.95605998 10.3125 17.3125 C10.33505859 16.40048828 10.35761719 15.48847656 10.38085938 14.54882812 C10.57767484 9.62844141 10.72722968 5.94131723 14 2 C17.51253146 -0.34168764 18.86469356 -0.49623677 23 0 C26.33761045 2.15090451 27.73470933 3.20412799 29 7 C29.25583527 10.34950383 29.2314076 13.70424791 29.25 17.0625 C29.270625 17.96677734 29.29125 18.87105469 29.3125 19.80273438 C29.35179396 26.67426551 29.00407587 34.52757009 24.31347656 39.94946289 C18.70379331 45.1008652 13.29666383 46.46817717 5.7890625 46.31640625 C0.38561242 45.70340981 -3.35842855 43.50847106 -7.3125 39.875 C-11.6121829 32.54961432 -12.27120869 25.54263831 -12.3125 17.1875 C-12.31797852 16.3629834 -12.32345703 15.5384668 -12.32910156 14.68896484 C-12.26739953 9.46876047 -12.05033162 5.12355775 -8.25 1.1875 C-5.22105071 -0.41111212 -3.38597949 -0.48371136 0 0 Z " fill="#040404" transform="translate(403,215)"/>
<path d="M0 0 C2.38447665 1.44879594 4.00436396 3.00436396 6 5 C8.22307242 3.96785923 9.94266292 3.05324158 11.75 1.375 C15.09713362 -0.67047055 18.17541164 -0.57329559 22 0 C24.8855523 1.40578189 25.7102914 2.30469937 26.9375 5.25 C27.07615497 11.35081883 23.0191222 16.89872457 20 22 C20.86625 23.17755859 20.86625 23.17755859 21.75 24.37890625 C22.4925 25.42949219 23.235 26.48007813 24 27.5625 C25.11375 29.11130859 25.11375 29.11130859 26.25 30.69140625 C28.25903765 34.48974305 28.44819109 36.76255701 28 41 C26.5 43.4375 26.5 43.4375 24 45 C19.07833199 45.63505394 17.011718 45.54333004 12.625 43.1875 C10 41 10 41 8 38 C4.29655972 39.23448009 2.69749018 41.23334341 0 44 C-3.13871188 45.56935594 -5.53855822 45.35201103 -9 45 C-12 42.9375 -12 42.9375 -14 40 C-14.49220057 33.72444278 -11.19610731 30.09788171 -7.3984375 25.33203125 C-5.79431908 23.15637993 -5.79431908 23.15637993 -6.12890625 20.93359375 C-7.07589187 18.83154046 -8.20958552 17.11555729 -9.5625 15.25 C-12.36394485 10.89310176 -12.78168252 8.12436319 -12 3 C-9.11099655 -0.8520046 -4.4677886 -0.95860598 0 0 Z " fill="#020201" transform="translate(448,215)"/>
<path d="M0 0 C0.75023437 -0.02835938 1.50046875 -0.05671875 2.2734375 -0.0859375 C5.60236444 0.56657642 7.14697694 2.07452185 9.625 4.375 C11.27832031 7.28833008 11.27832031 7.28833008 12.703125 10.64453125 C12.96003113 11.243759 13.21693726 11.84298676 13.48162842 12.46037292 C14.01914935 13.72247625 14.54991791 14.98747471 15.07421875 16.25512695 C15.87120178 18.17833449 16.69144788 20.09026545 17.515625 22.00195312 C19.95741355 27.77359384 22.12349596 33.05179104 22.625 39.375 C21.27937601 42.32255732 20.53945456 43.91777272 17.625 45.375 C13.62377908 45.75247367 11.32903193 45.78177401 7.8125 43.75 C5.33674492 41.06203734 4.50429743 38.89218971 3.625 35.375 C1.315 35.375 -0.995 35.375 -3.375 35.375 C-3.643125 36.303125 -3.91125 37.23125 -4.1875 38.1875 C-5.58827628 41.94747843 -6.82646176 43.60073088 -10.375 45.375 C-14.17377599 45.72673852 -16.51860153 45.90201444 -19.8125 43.875 C-21.98984924 40.39124121 -21.90633909 37.33341426 -21.375 33.375 C-20.25219087 29.78742706 -18.74934353 26.41575923 -17.1875 23 C-16.80013672 22.11828125 -16.41277344 21.2365625 -16.01367188 20.328125 C-14.83108282 17.66192422 -13.61216348 15.01628822 -12.375 12.375 C-11.9423584 11.44397461 -11.5097168 10.51294922 -11.06396484 9.55371094 C-10.63422363 8.6568457 -10.20448242 7.75998047 -9.76171875 6.8359375 C-9.18296997 5.62236572 -9.18296997 5.62236572 -8.5925293 4.38427734 C-6.41005956 0.78256772 -3.97305289 0.06779954 0 0 Z " fill="#030403" transform="translate(246.375,214.625)"/>
<path d="M0 0 C4.97391016 3.50434579 6.85520432 8.50021665 9 14 C11.79348491 11.20651509 12.97446453 7.88893033 14.5859375 4.3125 C16.18170591 1.70284558 17.14452953 0.9880145 20 0 C23.85600245 -0.41314312 26.09971339 -0.55402253 29.4375 1.5 C31.66703278 5.06725246 31.63010987 7.95764346 31 12 C29.61412898 16.35955152 27.9332017 20.5670166 26.14770508 24.77392578 C25.31196597 26.7512635 24.50744206 28.73939028 23.70507812 30.73046875 C23.1763006 32.00336234 22.64576091 33.27552564 22.11328125 34.546875 C21.63673096 35.68995117 21.16018066 36.83302734 20.66918945 38.01074219 C18.84101398 41.28471915 17.10173167 42.93207578 14 45 C10.89775028 45.77025036 8.12560177 45.6433388 5 45 C-2.10881189 39.94484487 -5.03449973 29.88092936 -8.25 22.0625 C-8.61351562 21.22009766 -8.97703125 20.37769531 -9.3515625 19.50976562 C-11.61029973 13.99454069 -12.91707965 8.98515141 -12 3 C-9.15998263 -0.90502389 -4.47642317 -0.92030257 0 0 Z " fill="#050504" transform="translate(309,215)"/>
<path d="M0 0 C3.33761045 2.15090451 4.73470933 3.20412799 6 7 C6.08143855 8.62719482 6.1075302 10.25751719 6.09765625 11.88671875 C6.09443359 12.82451172 6.09121094 13.76230469 6.08789062 14.72851562 C6.07951172 15.70498047 6.07113281 16.68144531 6.0625 17.6875 C6.05798828 18.67556641 6.05347656 19.66363281 6.04882812 20.68164062 C6.03704303 23.12115474 6.02059011 25.56054689 6 28 C6.68562012 28.04680908 7.37124023 28.09361816 8.07763672 28.1418457 C8.97756348 28.21491943 9.87749023 28.28799316 10.8046875 28.36328125 C12.14249268 28.46443237 12.14249268 28.46443237 13.50732422 28.56762695 C16 29 16 29 19.125 31.1875 C21 34 21 34 21.625 37 C20.7494102 41.20283102 19.44865052 42.42848764 16 45 C12.3187452 45.71611264 8.73856788 45.65302815 5 45.5625 C4.01515625 45.57345703 3.0303125 45.58441406 2.015625 45.59570312 C-2.39621049 45.55098858 -5.24551069 45.43100202 -9.125 43.21484375 C-13.46410726 38.08927329 -12.18607948 30.9497817 -12.18530273 24.58276367 C-12.18748908 22.57253845 -12.20566679 20.56286264 -12.22460938 18.55273438 C-12.22654297 17.27849609 -12.22847656 16.00425781 -12.23046875 14.69140625 C-12.23457764 13.52810791 -12.23868652 12.36480957 -12.24291992 11.16625977 C-11.92834635 7.06605412 -11.12756706 4.16783731 -8.25 1.1875 C-5.22105071 -0.41111212 -3.38597949 -0.48371136 0 0 Z " fill="#050505" transform="translate(201,215)"/>
<path d="M0 0 C1.640625 1.1953125 1.640625 1.1953125 3.125 2.625 C4.07375 3.40875 5.0225 4.1925 6 5 C9.34084905 4.47158931 9.34084905 4.47158931 12 3 C14 5 14 5 14 8 C13.401875 8.268125 12.80375 8.53625 12.1875 8.8125 C9.95672092 9.8893979 9.95672092 9.8893979 8.375 11.625 C7.694375 12.305625 7.694375 12.305625 7 13 C6.34 13 5.68 13 5 13 C4.67 13.99 4.34 14.98 4 16 C2.5625 17.6875 2.5625 17.6875 1 19 C0.34 19 -0.32 19 -1 19 C-1.2578125 19.71542969 -1.515625 20.43085938 -1.78125 21.16796875 C-3.07384765 24.17160111 -4.6277709 26.63505372 -6.5 29.3125 C-7.1084375 30.19550781 -7.716875 31.07851562 -8.34375 31.98828125 C-8.8903125 32.65214844 -9.436875 33.31601563 -10 34 C-10.66 34 -11.32 34 -12 34 C-12 34.99 -12 35.98 -12 37 C-10.68 37.33 -9.36 37.66 -8 38 C-9.65 38 -11.3 38 -13 38 C-12.75495634 32.11895208 -11.06426478 29.28929495 -7.1796875 24.89453125 C-5.79326509 23.08636622 -5.79326509 23.08636622 -6.16015625 20.99609375 C-7.06943864 18.83496212 -8.18722081 17.14639637 -9.5625 15.25 C-12.36394485 10.89310176 -12.78168252 8.12436319 -12 3 C-9.12100084 -0.83866555 -4.45694556 -0.98467402 0 0 Z " fill="#080808" transform="translate(448,215)"/>
<path d="M0 0 C0.2475 0.639375 0.495 1.27875 0.75 1.9375 C1.81562433 4.18741541 1.81562433 4.18741541 4.125 4.75 C4.74375 4.8325 5.3625 4.915 6 5 C4.9375 7 4.9375 7 3 9 C-0.6875 9.25 -0.6875 9.25 -4 9 C-3.34 8.67 -2.68 8.34 -2 8 C-3.06645115 6.70366379 -3.06645115 6.70366379 -5.5625 6.9375 C-6.366875 6.958125 -7.17125 6.97875 -8 7 C-7.67 6.34 -7.34 5.68 -7 5 C-8.32 4.34 -9.64 3.68 -11 3 C-7.37 3 -3.74 3 0 3 C0 2.01 0 1.02 0 0 Z " fill="#111111" transform="translate(299,161)"/>
<path d="M0 0 C1 3 1 3 0.109375 5.19921875 C-0.33921875 6.02035156 -0.7878125 6.84148437 -1.25 7.6875 C-3.54922245 12.04897769 -5.3646726 16.3522274 -7 21 C-8.4650113 16.49628572 -6.86369593 13.41994594 -5.0625 9.25 C-4.77181641 8.55261719 -4.48113281 7.85523437 -4.18164062 7.13671875 C-3.46448297 5.42024305 -2.73356598 3.70952768 -2 2 C-1.34 2 -0.68 2 0 2 C0 1.34 0 0.68 0 0 Z " fill="#30302F" transform="translate(369,111)"/>
<path d="M0 0 C0 3.59058544 -0.89631503 4.74787471 -2.875 7.6875 C-3.40867187 8.49574219 -3.94234375 9.30398437 -4.4921875 10.13671875 C-4.98976563 10.75160156 -5.48734375 11.36648437 -6 12 C-6.66 12 -7.32 12 -8 12 C-8 12.99 -8 13.98 -8 15 C-6.02 15.495 -6.02 15.495 -4 16 C-5.65 16 -7.3 16 -9 16 C-8.73147898 9.55549559 -6.34253164 5.72264714 -2 1 C-1.34 0.67 -0.68 0.34 0 0 Z " fill="#343433" transform="translate(444,237)"/>
<path d="M0 0 C0.66 0 1.32 0 2 0 C2.66 1.98 3.32 3.96 4 6 C3.01 6.495 3.01 6.495 2 7 C1.34 6.67 0.68 6.34 0 6 C-0.33 7.32 -0.66 8.64 -1 10 C-1.33 10 -1.66 10 -2 10 C-1.125 2.25 -1.125 2.25 0 0 Z " fill="#151514" transform="translate(322,222)"/>
<path d="M0 0 C0.66 0 1.32 0 2 0 C-0.89066059 9.59453303 -0.89066059 9.59453303 -4 13 C-3.40895235 8.15340923 -2.02055843 4.39251833 0 0 Z " fill="#3A3A3A" transform="translate(232,231)"/>
<path d="M0 0 C0.33 0 0.66 0 1 0 C2.33257403 9.41002278 2.33257403 9.41002278 1 14 C0.67 14 0.34 14 0 14 C0 12.35 0 10.7 0 9 C-0.66 9 -1.32 9 -2 9 C-1.34 6.03 -0.68 3.06 0 0 Z " fill="#0B0B0B" transform="translate(303,103)"/>
<path d="M0 0 C2 2 2 2 2 4 C1.34 4 0.68 4 0 4 C0 4.66 0 5.32 0 6 C-1.32 6.33 -2.64 6.66 -4 7 C-3.6875 4.625 -3.6875 4.625 -3 2 C-2.01 1.34 -1.02 0.68 0 0 Z " fill="#161615" transform="translate(321,233)"/>
<path d="M0 0 C0.66 0 1.32 0 2 0 C2 0.66 2 1.32 2 2 C2.66 2 3.32 2 4 2 C2.75775988 4.48448024 1.55296823 6.67054766 0 9 C-0.66 8.67 -1.32 8.34 -2 8 C-2 7.34 -2 6.68 -2 6 C-1.34 6 -0.68 6 0 6 C0 4.02 0 2.04 0 0 Z " fill="#0D0D0C" transform="translate(417,241)"/>
</svg>
