<svg version="1.1" id="Layer_1" xmlns="http://www.w3.org/2000/svg" xmlns:xlink="http://www.w3.org/1999/xlink" x="0px" y="0px"
	 width="100%" viewBox="0 0 192 192" enable-background="new 0 0 192 192" xml:space="preserve">
<path fill="#FEFEFE" opacity="1.000000" stroke="none" 
	d="
M130.000000,193.000000 
	C86.694565,193.000000 43.889133,193.000000 1.041850,193.000000 
	C1.041850,129.069611 1.041850,65.139183 1.041850,1.104380 
	C64.888573,1.104380 128.777374,1.104380 192.833099,1.104380 
	C192.833099,64.999641 192.833099,128.999786 192.833099,193.000000 
	C172.139481,193.000000 151.319733,193.000000 130.000000,193.000000 
M131.361832,84.745117 
	C130.845062,84.524063 130.328293,84.303009 129.017868,84.074135 
	C127.548737,82.427979 126.079605,80.781822 124.112610,78.577820 
	C121.337509,79.734650 120.473244,84.217255 121.300484,86.240082 
	C123.548637,91.737473 118.882149,99.479782 126.631454,103.862274 
	C122.725716,116.346954 118.819984,128.831635 114.914253,141.316299 
	C112.617981,136.947723 111.545570,132.469299 109.981224,128.169861 
	C109.517380,126.895058 107.772057,125.468513 106.433578,125.257919 
	C103.601585,124.812347 100.650757,125.122169 97.666901,125.122169 
	C99.761909,137.968903 106.679184,158.030624 109.890266,160.922897 
	C114.536255,156.819519 123.625595,131.686874 131.195007,102.644516 
	C131.312881,102.056702 131.430771,101.468887 131.895096,100.303223 
	C133.236221,96.126495 134.577347,91.949768 136.412537,87.327263 
	C137.165207,87.113953 137.917877,86.900642 138.465179,86.745537 
	C138.044342,85.500092 137.615738,84.231689 137.664276,82.340309 
	C138.581970,79.665352 139.385071,76.944199 140.440857,74.324905 
	C142.737701,68.626640 144.600159,62.468403 152.227951,61.657059 
	C152.548721,61.622948 152.769226,60.646351 153.291367,59.596016 
	C144.087631,59.596016 135.392929,59.596016 126.698235,59.596016 
	C126.622032,59.997452 126.545822,60.398888 126.469620,60.800323 
	C127.581848,61.228695 128.662323,61.791592 129.811615,62.062939 
	C135.883057,63.496380 137.177765,65.305054 136.080612,71.587624 
	C135.452042,75.187057 134.506760,78.731201 133.228973,82.767166 
	C132.775818,83.509445 132.322678,84.251724 131.361832,84.745117 
M118.171860,94.768929 
	C116.583961,93.822212 114.935760,92.960571 113.432152,91.894913 
	C112.610214,91.312370 112.032883,90.384674 111.345238,89.612617 
	C112.278862,89.087639 113.166298,88.421700 114.164734,88.094521 
	C114.699600,87.919258 115.489769,88.567711 116.050873,88.417915 
	C116.998238,88.165016 117.855133,87.573204 118.750069,87.123909 
	C118.104301,86.149704 117.617165,84.517509 116.784889,84.316864 
	C113.441742,83.510849 110.189346,83.775497 107.407631,86.987900 
	C107.041397,86.985718 106.675156,86.983536 106.130539,86.226738 
	C104.651505,85.624802 103.213356,84.866364 101.681587,84.466324 
	C100.239525,84.089714 98.698769,84.090973 97.166290,83.124901 
	C96.567299,81.091255 95.968300,79.057617 95.501495,76.501724 
	C95.290192,76.016701 95.078888,75.531677 94.915512,74.221245 
	C94.645866,73.287285 94.311996,72.366516 94.116982,71.417229 
	C92.816689,65.087891 94.010612,63.331200 100.390907,62.017082 
	C100.991119,61.893459 101.544006,61.540092 102.748856,61.109467 
	C102.492683,60.530827 102.236511,59.952190 101.087280,59.080082 
	C90.728096,59.137367 80.368904,59.194653 69.532516,59.052917 
	C69.360863,59.037483 69.189201,59.022053 68.265106,59.280006 
	C67.503365,59.497486 66.741623,59.714966 65.759857,59.109211 
	C65.781929,50.282108 65.851936,41.454765 65.807281,32.628002 
	C65.782310,27.693611 68.072884,24.884783 72.916153,23.911020 
	C74.655823,23.561251 76.288544,22.679533 78.880806,21.694527 
	C72.537018,19.400061 43.201973,19.868826 40.090019,22.053387 
	C40.915833,22.487347 41.557678,22.973516 42.279659,23.181480 
	C51.636372,25.876663 52.264923,26.450790 52.328140,36.041084 
	C52.435715,52.361217 52.311474,68.682877 51.535027,84.953629 
	C48.848816,83.737411 47.360561,84.441444 47.366451,87.550194 
	C47.378502,93.909676 46.059788,100.638802 52.337318,106.109917 
	C51.358639,109.515579 51.246391,113.663750 49.149239,116.110916 
	C47.186310,118.401474 43.119987,118.889481 39.979351,120.170769 
	C41.351952,121.686127 42.406815,122.122559 43.464230,122.128815 
	C67.117256,122.268784 90.770874,122.321877 114.423454,122.508209 
	C117.738266,122.534325 118.854164,121.114662 118.812103,118.032799 
	C118.734848,112.372467 118.797279,106.710236 119.116493,100.233490 
	C118.761810,98.643585 118.407127,97.053680 118.171860,94.768929 
M41.202515,89.488213 
	C41.645985,94.253853 42.089451,99.019501 42.532921,103.785141 
	C43.176872,103.794937 43.820827,103.804741 44.464783,103.814545 
	C45.812965,98.782745 45.797295,93.288887 44.579922,88.428360 
	C43.949959,85.913139 39.541489,84.344292 36.107506,81.806435 
	C36.028652,81.160385 35.795933,79.253693 35.403286,76.036659 
	C33.782906,77.623169 32.311897,78.387749 32.292427,79.187653 
	C32.110115,86.678215 32.112648,94.176186 32.273567,101.667465 
	C32.288956,102.383934 33.740723,103.069557 34.525673,103.769493 
	C35.007801,103.012894 35.865276,102.276009 35.906239,101.496239 
	C36.072090,98.338974 36.058956,95.166595 35.975090,92.003426 
	C35.878136,88.346886 37.129086,86.885201 41.202515,89.488213 
M162.037262,88.518051 
	C162.038803,92.164848 161.895218,95.820824 162.124756,99.453217 
	C162.199768,100.640450 163.245697,101.766319 163.847595,102.920258 
	C164.553787,101.877022 165.439316,100.907997 165.911102,99.767784 
	C166.310059,98.803604 166.229782,97.641144 166.374878,96.458023 
	C170.194962,97.354599 169.691147,103.866539 175.702103,102.273979 
	C171.242920,96.403900 166.929596,90.618187 175.488480,84.843414 
	C169.781586,82.357033 169.522034,88.590340 165.928680,89.525452 
	C165.928680,85.761093 166.056595,82.449913 165.831558,79.162903 
	C165.780396,78.415634 164.506760,77.752060 163.795792,77.049965 
	C163.220749,77.725227 162.200699,78.368324 162.149155,79.081436 
	C161.946518,81.885307 162.048737,84.711205 162.037262,88.518051 
M29.257318,84.974312 
	C26.717262,84.891937 23.923887,84.133469 21.723576,84.957863 
	C20.180809,85.535912 18.226376,88.645088 18.627684,89.962105 
	C19.289787,92.134979 21.675915,93.802597 23.397081,95.624931 
	C24.384819,96.670731 25.494074,97.601768 26.548620,98.584473 
	C25.060698,99.015564 23.585606,99.504204 22.076588,99.840683 
	C21.654888,99.934715 21.060432,99.353073 20.672159,99.477501 
	C19.836748,99.745201 18.649023,100.111122 18.420498,100.735252 
	C18.195839,101.348839 18.944298,103.022812 19.325623,103.042007 
	C22.193087,103.186378 25.281744,103.632294 27.868736,102.735817 
	C29.228107,102.264755 30.812096,98.916702 30.344379,97.521652 
	C29.636652,95.410744 27.275003,93.821098 25.520653,92.107727 
	C24.581589,91.190575 23.442776,90.477943 22.394106,89.673012 
	C23.805073,89.219872 25.323589,88.192741 26.604673,88.432785 
	C29.292301,88.936363 29.987541,87.986206 29.257318,84.974312 
M155.186249,84.039429 
	C151.481812,83.670670 148.000122,84.697136 147.464890,88.585289 
	C146.813309,93.318466 145.002808,98.919601 149.678406,102.502342 
	C151.351898,103.784676 154.872162,103.049416 157.420776,102.561935 
	C158.202362,102.412445 158.556091,100.026085 159.520569,97.636078 
	C157.396332,98.224915 156.748077,98.306915 156.189133,98.575081 
	C151.984421,100.592476 151.096619,100.057335 150.938919,95.316673 
	C150.900238,94.154243 150.884750,92.986572 150.947449,91.826103 
	C151.124329,88.551132 152.287262,87.052254 155.701065,89.012589 
	C156.487717,89.464317 157.708023,89.160835 158.728790,89.204887 
	C158.597733,88.129066 158.727036,86.917183 158.257324,86.018318 
	C157.844818,85.228935 156.761093,84.790306 155.186249,84.039429 
M142.617691,93.343964 
	C142.205048,95.053055 141.792389,96.762146 141.337097,98.647850 
	C140.095566,98.898598 138.719284,98.926392 137.618851,99.491425 
	C136.945084,99.837395 136.279755,101.058815 136.370377,101.793358 
	C136.461441,102.531723 137.717896,103.834663 138.078033,103.716362 
	C140.391052,102.956497 143.512177,102.460403 144.609589,100.749741 
	C145.995514,98.589279 148.013657,94.922211 142.617691,93.343964 
z"/>
<path fill="#060606" opacity="1.000000" stroke="none" 
	d="
M52.284641,85.003891 
	C52.311474,68.682877 52.435715,52.361217 52.328140,36.041084 
	C52.264923,26.450790 51.636372,25.876663 42.279659,23.181480 
	C41.557678,22.973516 40.915833,22.487347 40.090019,22.053387 
	C43.201973,19.868826 72.537018,19.400061 78.880806,21.694527 
	C76.288544,22.679533 74.655823,23.561251 72.916153,23.911020 
	C68.072884,24.884783 65.782310,27.693611 65.807281,32.628002 
	C65.851936,41.454765 65.781929,50.282108 65.736465,59.909187 
	C65.782883,66.481941 65.852684,72.254730 65.772324,78.336555 
	C65.573494,79.096550 65.524826,79.547501 65.148224,80.009293 
	C63.548115,81.346069 62.275944,82.672005 60.700001,84.284958 
	C60.242428,90.721809 60.088631,96.871643 59.624092,103.039757 
	C58.549549,103.370071 57.785748,103.682106 56.615189,104.002640 
	C55.125660,104.011398 54.042889,104.011658 52.830681,103.556519 
	C52.562374,97.068703 52.423508,91.036301 52.284641,85.003891 
M56.969246,87.203362 
	C56.955093,86.712074 56.957386,86.219429 56.916733,85.730347 
	C56.904572,85.584099 56.789154,85.433884 56.688507,85.312454 
	C56.632111,85.244408 56.509068,85.231606 56.344688,85.164986 
	C56.344688,89.725746 56.344688,94.251892 56.344688,98.778038 
	C56.552872,98.776382 56.761051,98.774734 56.969234,98.773079 
	C56.969234,95.194855 56.969234,91.616631 56.969246,87.203362 
z"/>
<path fill="#F7F6F6" opacity="1.000000" stroke="none" 
	d="
M65.922493,78.027512 
	C65.852684,72.254730 65.782883,66.481941 65.846481,60.320805 
	C66.741623,59.714966 67.503365,59.497486 68.538979,59.479370 
	C69.215660,60.324966 69.618462,60.971199 70.365326,61.801495 
	C75.105614,62.289730 78.208458,64.519302 79.604942,68.636833 
	C81.550201,74.372368 83.190613,80.211304 84.670158,86.252975 
	C83.940308,90.044510 83.165123,93.587402 83.147682,97.134010 
	C83.125389,101.664040 85.477058,104.234093 90.522484,103.780746 
	C90.682396,103.874420 91.034172,103.991188 91.053703,104.372894 
	C92.381866,108.187721 93.690498,111.620842 95.008354,115.435226 
	C95.053978,116.323608 95.090370,116.830719 94.818817,117.636276 
	C90.195717,117.955750 85.871765,118.163910 81.567146,117.961365 
	C70.338081,117.433029 66.313698,113.481544 66.364883,103.015335 
	C68.089828,103.162735 69.442848,103.292397 70.323105,103.376755 
	C69.268776,98.354019 68.281487,93.650681 67.205208,88.523399 
	C70.253181,88.523399 71.930870,88.523399 74.047203,88.523399 
	C74.047203,92.103340 73.772369,95.276321 74.113708,98.381577 
	C74.587151,102.688515 76.865028,103.741920 80.956879,101.741226 
	C80.658470,101.189919 80.475883,100.535614 80.055412,100.124741 
	C75.782166,95.948936 75.841415,91.805847 80.058052,87.684303 
	C80.621803,87.133263 80.781174,85.395821 80.339539,84.733063 
	C78.988556,82.705681 77.253212,80.934441 75.295525,78.624878 
	C74.669495,80.038498 73.837837,81.916435 72.871841,84.097725 
	C71.404320,83.976425 69.831284,83.846397 69.536270,83.822014 
	C67.926003,81.240028 66.924248,79.633774 65.922493,78.027512 
z"/>
<path fill="#080808" opacity="1.000000" stroke="none" 
	d="
M65.992966,102.997597 
	C66.313698,113.481544 70.338081,117.433029 81.567146,117.961365 
	C85.871765,118.163910 90.195717,117.955750 95.238457,117.607391 
	C106.587097,116.587326 111.828094,112.860672 114.759445,103.842163 
	C115.075424,103.117958 115.211723,102.596260 115.657143,102.087769 
	C116.911339,101.750252 117.856407,101.399521 118.801483,101.048782 
	C118.797279,106.710236 118.734848,112.372467 118.812103,118.032799 
	C118.854164,121.114662 117.738266,122.534325 114.423454,122.508209 
	C90.770874,122.321877 67.117256,122.268784 43.464230,122.128815 
	C42.406815,122.122559 41.351952,121.686127 39.979351,120.170769 
	C43.119987,118.889481 47.186310,118.401474 49.149239,116.110916 
	C51.246391,113.663750 51.358639,109.515579 52.505768,105.669693 
	C52.674221,105.229469 52.964367,104.983246 53.332726,104.973923 
	C54.808044,104.641113 55.914997,104.317627 57.021950,103.994141 
	C57.785748,103.682106 58.549549,103.370071 59.937691,102.754486 
	C60.709286,96.299942 60.856529,90.148941 61.003773,83.997940 
	C62.275944,82.672005 63.548115,81.346069 65.264679,80.401978 
	C65.685509,82.146545 65.661957,83.509277 65.343430,84.901825 
	C65.244293,85.664124 65.440147,86.396622 65.686752,87.573792 
	C65.704193,91.303482 65.670891,94.588501 65.351944,97.943985 
	C65.213135,99.060745 65.359970,100.107040 65.551498,101.474297 
	C65.728455,102.196030 65.860710,102.596817 65.992966,102.997597 
z"/>
<path fill="#101010" opacity="1.000000" stroke="none" 
	d="
M130.852844,102.959999 
	C123.625595,131.686874 114.536255,156.819519 109.890266,160.922897 
	C106.679184,158.030624 99.761909,137.968903 97.666901,125.122169 
	C100.650757,125.122169 103.601585,124.812347 106.433578,125.257919 
	C107.772057,125.468513 109.517380,126.895058 109.981224,128.169861 
	C111.545570,132.469299 112.617981,136.947723 114.914253,141.316299 
	C118.819984,128.831635 122.725716,116.346954 126.814316,103.196274 
	C127.335938,101.355247 127.674683,100.180214 128.199585,98.691574 
	C129.062714,96.264709 129.739685,94.151443 130.678513,92.001823 
	C131.007355,91.324326 131.074341,90.683174 131.199249,89.703957 
	C131.275894,88.908974 131.294662,88.452049 131.490479,87.872185 
	C131.872559,87.527695 131.978729,87.266022 132.071991,86.727921 
	C132.227127,86.338913 132.296310,86.186218 132.624695,86.015144 
	C133.254913,85.663803 133.625931,85.330833 134.317810,84.999344 
	C135.066284,85.011879 135.493927,85.022942 135.926727,85.376228 
	C135.927429,86.403320 135.922943,87.088173 135.918457,87.773033 
	C134.577347,91.949768 133.236221,96.126495 131.426208,100.669052 
	C130.922485,101.676582 130.887665,102.318291 130.852844,102.959999 
z"/>
<path fill="#030303" opacity="1.000000" stroke="none" 
	d="
M84.961494,86.005981 
	C83.190613,80.211304 81.550201,74.372368 79.604942,68.636833 
	C78.208458,64.519302 75.105614,62.289730 70.367081,61.505783 
	C70.019760,60.434650 70.014740,59.843296 70.009720,59.251938 
	C80.368904,59.194653 90.728096,59.137367 101.537376,59.547981 
	C102.031273,60.441719 102.075066,60.867554 102.118866,61.293388 
	C101.544006,61.540092 100.991119,61.893459 100.390907,62.017082 
	C94.010612,63.331200 92.816689,65.087891 94.116982,71.417229 
	C94.311996,72.366516 94.645866,73.287285 94.691071,74.771072 
	C94.767525,75.888596 95.068413,76.456284 95.369301,77.023972 
	C95.968300,79.057617 96.567299,81.091255 97.053482,83.886032 
	C97.023911,85.407761 97.107155,86.168343 96.870285,87.144264 
	C96.062477,88.358925 95.074348,89.409470 95.170502,90.349045 
	C95.688705,95.412132 92.467659,95.234894 88.884697,94.954437 
	C88.686729,94.934151 88.290672,94.951042 88.121567,94.617111 
	C88.940773,90.806732 86.760414,88.475273 84.961494,86.005981 
z"/>
<path fill="#F5F5F5" opacity="1.000000" stroke="none" 
	d="
M114.579765,104.044655 
	C111.828094,112.860672 106.587097,116.587326 95.546417,117.308945 
	C95.090370,116.830719 95.053978,116.323608 95.396812,115.308594 
	C97.208458,114.511230 98.670166,113.875908 100.068031,113.994324 
	C105.156700,114.425407 105.532837,111.967735 104.354462,107.921562 
	C103.019470,103.337555 102.034973,98.651489 101.171005,93.763237 
	C101.442345,90.129868 102.928734,87.850723 106.308922,86.981354 
	C106.675156,86.983536 107.041397,86.985718 107.683670,87.407799 
	C106.526482,94.841698 112.402534,95.102821 116.532455,97.375549 
	C116.125809,98.515015 115.654541,99.315781 114.742058,100.082092 
	C111.952454,100.259262 109.604050,100.470879 107.255653,100.682503 
	C107.258430,101.422188 107.261208,102.161873 107.263992,102.901558 
	C109.702583,103.282585 112.141174,103.663620 114.579765,104.044655 
z"/>
<path fill="#171717" opacity="1.000000" stroke="none" 
	d="
M135.921555,85.033997 
	C135.493927,85.022942 135.066284,85.011879 134.299469,84.546997 
	C133.874863,83.495522 133.789459,82.897873 133.704056,82.300232 
	C134.506760,78.731201 135.452042,75.187057 136.080612,71.587624 
	C137.177765,65.305054 135.883057,63.496380 129.811615,62.062939 
	C128.662323,61.791592 127.581848,61.228695 126.469620,60.800323 
	C126.545822,60.398888 126.622032,59.997452 126.698235,59.596016 
	C135.392929,59.596016 144.087631,59.596016 153.291367,59.596016 
	C152.769226,60.646351 152.548721,61.622948 152.227951,61.657059 
	C144.600159,62.468403 142.737701,68.626640 140.440857,74.324905 
	C139.385071,76.944199 138.581970,79.665352 137.186371,82.755714 
	C136.446152,83.792076 136.183853,84.413033 135.921555,85.033997 
z"/>
<path fill="#C6C6C6" opacity="1.000000" stroke="none" 
	d="
M40.965527,89.133751 
	C37.129086,86.885201 35.878136,88.346886 35.975090,92.003426 
	C36.058956,95.166595 36.072090,98.338974 35.906239,101.496239 
	C35.865276,102.276009 35.007801,103.012894 34.525673,103.769493 
	C33.740723,103.069557 32.288956,102.383934 32.273567,101.667465 
	C32.112648,94.176186 32.110115,86.678215 32.292427,79.187653 
	C32.311897,78.387749 33.782906,77.623169 35.403286,76.036659 
	C35.795933,79.253693 36.028652,81.160385 36.107506,81.806435 
	C39.541489,84.344292 43.949959,85.913139 44.579922,88.428360 
	C45.797295,93.288887 45.812965,98.782745 44.464783,103.814545 
	C43.820827,103.804741 43.176872,103.794937 42.532921,103.785141 
	C42.089451,99.019501 41.645985,94.253853 40.965527,89.133751 
z"/>
<path fill="#C5C5C5" opacity="1.000000" stroke="none" 
	d="
M162.037506,88.023491 
	C162.048737,84.711205 161.946518,81.885307 162.149155,79.081436 
	C162.200699,78.368324 163.220749,77.725227 163.795792,77.049973 
	C164.506760,77.752060 165.780396,78.415634 165.831558,79.162903 
	C166.056595,82.449913 165.928680,85.761093 165.928680,89.525452 
	C169.522034,88.590340 169.781586,82.357033 175.488480,84.843414 
	C166.929596,90.618187 171.242920,96.403900 175.702103,102.273979 
	C169.691147,103.866539 170.194962,97.354599 166.374878,96.458023 
	C166.229782,97.641144 166.310059,98.803604 165.911102,99.767784 
	C165.439316,100.907997 164.553787,101.877022 163.847595,102.920258 
	C163.245697,101.766319 162.199768,100.640450 162.124756,99.453217 
	C161.895218,95.820824 162.038803,92.164848 162.037506,88.023491 
z"/>
<path fill="#C4C4C4" opacity="1.000000" stroke="none" 
	d="
M29.483177,85.286545 
	C29.987541,87.986206 29.292301,88.936363 26.604673,88.432785 
	C25.323589,88.192741 23.805073,89.219872 22.394106,89.673012 
	C23.442776,90.477943 24.581589,91.190575 25.520653,92.107727 
	C27.275003,93.821098 29.636652,95.410744 30.344379,97.521652 
	C30.812096,98.916702 29.228107,102.264755 27.868736,102.735817 
	C25.281744,103.632294 22.193087,103.186378 19.325623,103.042007 
	C18.944298,103.022812 18.195839,101.348839 18.420498,100.735252 
	C18.649023,100.111122 19.836748,99.745201 20.672159,99.477501 
	C21.060432,99.353073 21.654888,99.934715 22.076588,99.840683 
	C23.585606,99.504204 25.060698,99.015564 26.548622,98.584473 
	C25.494074,97.601768 24.384819,96.670731 23.397081,95.624931 
	C21.675915,93.802597 19.289787,92.134979 18.627684,89.962105 
	C18.226376,88.645088 20.180809,85.535912 21.723576,84.957863 
	C23.923887,84.133469 26.717262,84.891937 29.483177,85.286545 
z"/>
<path fill="#C5C5C5" opacity="1.000000" stroke="none" 
	d="
M155.580048,84.118088 
	C156.761093,84.790306 157.844818,85.228935 158.257324,86.018318 
	C158.727036,86.917183 158.597733,88.129066 158.728790,89.204895 
	C157.708023,89.160835 156.487717,89.464317 155.701065,89.012589 
	C152.287262,87.052254 151.124329,88.551132 150.947449,91.826103 
	C150.884750,92.986572 150.900238,94.154243 150.938919,95.316673 
	C151.096619,100.057335 151.984421,100.592476 156.189133,98.575081 
	C156.748077,98.306915 157.396332,98.224915 159.520569,97.636078 
	C158.556091,100.026085 158.202362,102.412445 157.420776,102.561935 
	C154.872162,103.049416 151.351898,103.784676 149.678406,102.502342 
	C145.002808,98.919601 146.813309,93.318466 147.464890,88.585289 
	C148.000122,84.697136 151.481812,83.670670 155.580048,84.118088 
z"/>
<path fill="#C2C2C2" opacity="1.000000" stroke="none" 
	d="
M128.013428,99.005173 
	C127.674683,100.180214 127.335938,101.355247 126.825066,102.784477 
	C118.882149,99.479782 123.548637,91.737473 121.300484,86.240082 
	C120.473244,84.217255 121.337509,79.734650 124.112610,78.577820 
	C126.079605,80.781822 127.548737,82.427979 129.472656,84.475731 
	C129.553055,85.869965 129.471100,87.254044 128.754883,87.789108 
	C125.196007,90.447830 124.754906,95.758141 128.013428,99.005173 
z"/>
<path fill="#A3A3A3" opacity="1.000000" stroke="none" 
	d="
M52.964367,104.983246 
	C52.964367,104.983246 52.674221,105.229469 52.484856,105.248001 
	C46.059788,100.638802 47.378502,93.909676 47.366451,87.550194 
	C47.360561,84.441444 48.848816,83.737411 51.909836,84.978760 
	C52.423508,91.036301 52.562374,97.068703 52.777599,103.799576 
	C52.853958,104.498047 52.964367,104.983246 52.964367,104.983246 
z"/>
<path fill="#C2C2C2" opacity="1.000000" stroke="none" 
	d="
M116.467834,97.036858 
	C112.402534,95.102821 106.526482,94.841698 107.958359,87.408890 
	C110.189346,83.775497 113.441742,83.510849 116.784889,84.316864 
	C117.617165,84.517509 118.104301,86.149704 118.750069,87.123909 
	C117.855133,87.573204 116.998238,88.165016 116.050873,88.417915 
	C115.489769,88.567711 114.699600,87.919258 114.164734,88.094521 
	C113.166298,88.421700 112.278862,89.087639 111.345245,89.612625 
	C112.032883,90.384674 112.610214,91.312370 113.432152,91.894913 
	C114.935760,92.960571 116.583961,93.822212 117.762253,95.278893 
	C117.057701,96.204857 116.762772,96.620857 116.467834,97.036858 
z"/>
<path fill="#C5C5C5" opacity="1.000000" stroke="none" 
	d="
M143.001999,93.217880 
	C148.013657,94.922211 145.995514,98.589279 144.609589,100.749741 
	C143.512177,102.460403 140.391052,102.956497 138.078033,103.716362 
	C137.717896,103.834663 136.461441,102.531723 136.370377,101.793358 
	C136.279755,101.058815 136.945084,99.837395 137.618851,99.491425 
	C138.719284,98.926392 140.095566,98.898598 141.337097,98.647850 
	C141.792389,96.762146 142.205048,95.053055 143.001999,93.217880 
z"/>
<path fill="#B6B6B6" opacity="1.000000" stroke="none" 
	d="
M106.219727,86.604050 
	C102.928734,87.850723 101.442345,90.129868 100.882126,93.557877 
	C99.277008,91.375702 98.233704,89.152313 97.190399,86.928932 
	C97.107155,86.168343 97.023911,85.407761 97.071045,84.286583 
	C98.698769,84.090973 100.239525,84.089714 101.681587,84.466324 
	C103.213356,84.866364 104.651505,85.624802 106.219727,86.604050 
z"/>
<path fill="#F5F5F5" opacity="1.000000" stroke="none" 
	d="
M128.199585,98.691574 
	C124.754906,95.758141 125.196007,90.447830 128.754883,87.789108 
	C129.471100,87.254044 129.553055,85.869965 129.869476,84.479645 
	C130.328293,84.303009 130.845062,84.524063 131.744400,85.127182 
	C132.206467,85.683998 132.285965,85.858757 132.365479,86.033516 
	C132.296310,86.186218 132.227127,86.338913 131.793091,86.771851 
	C131.389954,87.366432 131.351685,87.680779 131.313431,87.995132 
	C131.294662,88.452049 131.275894,88.908974 130.865997,89.753159 
	C130.455444,90.773003 130.436066,91.405586 130.416672,92.038170 
	C129.739685,94.151443 129.062714,96.264709 128.199585,98.691574 
z"/>
<path fill="#242424" opacity="1.000000" stroke="none" 
	d="
M135.926727,85.376228 
	C136.183853,84.413033 136.446152,83.792076 136.947784,83.067200 
	C137.615738,84.231689 138.044342,85.500092 138.465179,86.745537 
	C137.917877,86.900642 137.165207,87.113953 136.165497,87.550148 
	C135.922943,87.088173 135.927429,86.403320 135.926727,85.376228 
z"/>
<path fill="#383838" opacity="1.000000" stroke="none" 
	d="
M116.532455,97.375549 
	C116.762772,96.620857 117.057701,96.204857 117.702545,95.626312 
	C118.407127,97.053680 118.761810,98.643585 118.958984,100.641136 
	C117.856407,101.399521 116.911339,101.750252 115.589905,101.764969 
	C115.203453,100.991486 115.193367,100.554016 115.183273,100.116547 
	C115.654541,99.315781 116.125809,98.515015 116.532455,97.375549 
z"/>
<path fill="#242424" opacity="1.000000" stroke="none" 
	d="
M132.624695,86.015144 
	C132.285965,85.858757 132.206467,85.683998 131.998260,85.251625 
	C132.322678,84.251724 132.775818,83.509445 133.466522,82.533699 
	C133.789459,82.897873 133.874863,83.495522 133.978607,84.545509 
	C133.625931,85.330833 133.254913,85.663803 132.624695,86.015144 
z"/>
<path fill="#0B0B0B" opacity="1.000000" stroke="none" 
	d="
M95.435394,76.762848 
	C95.068413,76.456284 94.767525,75.888596 94.667114,75.183777 
	C95.078888,75.531677 95.290192,76.016701 95.435394,76.762848 
z"/>
<path fill="#242424" opacity="1.000000" stroke="none" 
	d="
M131.023926,102.802261 
	C130.887665,102.318291 130.922485,101.676582 131.252991,100.957970 
	C131.430771,101.468887 131.312881,102.056702 131.023926,102.802261 
z"/>
<path fill="#0B0B0B" opacity="1.000000" stroke="none" 
	d="
M69.771118,59.152428 
	C70.014740,59.843296 70.019760,60.434650 70.023026,61.321720 
	C69.618462,60.971199 69.215660,60.324966 68.915199,59.342682 
	C69.189201,59.022053 69.360863,59.037483 69.771118,59.152428 
z"/>
<path fill="#0B0B0B" opacity="1.000000" stroke="none" 
	d="
M102.433853,61.201431 
	C102.075066,60.867554 102.031273,60.441719 101.983902,59.694717 
	C102.236511,59.952190 102.492683,60.530827 102.433853,61.201431 
z"/>
<path fill="#C2C2C2" opacity="1.000000" stroke="none" 
	d="
M66.364883,103.015335 
	C65.860710,102.596817 65.728455,102.196030 65.738121,101.089355 
	C65.799225,99.546814 65.718407,98.710167 65.637589,97.873528 
	C65.670891,94.588501 65.704193,91.303482 65.826965,87.206291 
	C65.823753,85.886757 65.731079,85.379387 65.638405,84.872017 
	C65.661957,83.509277 65.685509,82.146545 65.592613,80.391129 
	C65.524826,79.547501 65.573494,79.096550 65.772324,78.336555 
	C66.924248,79.633774 67.926003,81.240028 69.536270,83.822014 
	C69.831284,83.846397 71.404320,83.976425 72.871841,84.097725 
	C73.837837,81.916435 74.669495,80.038498 75.295525,78.624878 
	C77.253212,80.934441 78.988556,82.705681 80.339539,84.733063 
	C80.781174,85.395821 80.621803,87.133263 80.058052,87.684303 
	C75.841415,91.805847 75.782166,95.948936 80.055412,100.124741 
	C80.475883,100.535614 80.658470,101.189919 80.956879,101.741226 
	C76.865028,103.741920 74.587151,102.688515 74.113708,98.381577 
	C73.772369,95.276321 74.047203,92.103340 74.047203,88.523399 
	C71.930870,88.523399 70.253181,88.523399 67.205208,88.523399 
	C68.281487,93.650681 69.268776,98.354019 70.323105,103.376755 
	C69.442848,103.292397 68.089828,103.162735 66.364883,103.015335 
z"/>
<path fill="#242424" opacity="1.000000" stroke="none" 
	d="
M60.700001,84.284958 
	C60.856529,90.148941 60.709286,96.299942 60.248436,102.736206 
	C60.088631,96.871643 60.242428,90.721809 60.700001,84.284958 
z"/>
<path fill="#242424" opacity="1.000000" stroke="none" 
	d="
M56.969238,87.620880 
	C56.969234,91.616631 56.969234,95.194855 56.969234,98.773079 
	C56.761051,98.774734 56.552872,98.776382 56.344688,98.778038 
	C56.344688,94.251892 56.344688,89.725746 56.344688,85.164986 
	C56.509068,85.231606 56.632111,85.244408 56.688507,85.312454 
	C56.789154,85.433884 56.904572,85.584099 56.916733,85.730347 
	C56.957386,86.219429 56.955093,86.712074 56.969238,87.620880 
z"/>
<path fill="#242424" opacity="1.000000" stroke="none" 
	d="
M53.332726,104.973923 
	C52.964367,104.983246 52.853958,104.498047 52.907040,104.254982 
	C54.042889,104.011658 55.125660,104.011398 56.615189,104.002640 
	C55.914997,104.317627 54.808044,104.641113 53.332726,104.973923 
z"/>
<path fill="#0B0B0B" opacity="1.000000" stroke="none" 
	d="
M96.870285,87.144264 
	C98.233704,89.152313 99.277008,91.375702 100.609192,93.804443 
	C102.034973,98.651489 103.019470,103.337555 104.354462,107.921562 
	C105.532837,111.967735 105.156700,114.425407 100.068031,113.994324 
	C98.670166,113.875908 97.208458,114.511230 95.387589,114.927315 
	C93.690498,111.620842 92.381866,108.187721 91.426620,104.374817 
	C93.119324,102.972427 94.458649,101.949829 95.797974,100.927231 
	C94.507797,99.950279 93.158783,99.040390 91.945389,97.975914 
	C90.910210,97.067772 90.030914,95.981949 89.082664,94.974724 
	C92.467659,95.234894 95.688705,95.412132 95.170502,90.349045 
	C95.074348,89.409470 96.062477,88.358925 96.870285,87.144264 
z"/>
<path fill="#B6B6B6" opacity="1.000000" stroke="none" 
	d="
M84.670158,86.252975 
	C86.760414,88.475273 88.940773,90.806732 88.100410,95.010300 
	C88.953094,98.387299 89.657837,101.037193 90.362572,103.687080 
	C85.477058,104.234093 83.125389,101.664040 83.147682,97.134010 
	C83.165123,93.587402 83.940308,90.044510 84.670158,86.252975 
z"/>
<path fill="#1C1C1C" opacity="1.000000" stroke="none" 
	d="
M90.522484,103.780746 
	C89.657837,101.037193 88.953094,98.387299 88.269516,95.344223 
	C88.290672,94.951042 88.686729,94.934151 88.884697,94.954437 
	C90.030914,95.981949 90.910210,97.067772 91.945389,97.975914 
	C93.158783,99.040390 94.507797,99.950279 95.797974,100.927231 
	C94.458649,101.949829 93.119324,102.972427 91.407089,103.993111 
	C91.034172,103.991188 90.682396,103.874420 90.522484,103.780746 
z"/>
<path fill="#C2C2C2" opacity="1.000000" stroke="none" 
	d="
M114.742065,100.082092 
	C115.193367,100.554016 115.203453,100.991486 115.280777,101.751755 
	C115.211723,102.596260 115.075424,103.117958 114.759445,103.842163 
	C112.141174,103.663620 109.702583,103.282585 107.263992,102.901558 
	C107.261208,102.161873 107.258430,101.422188 107.255653,100.682503 
	C109.604050,100.470879 111.952454,100.259262 114.742065,100.082092 
z"/>
<path fill="#414141" opacity="1.000000" stroke="none" 
	d="
M65.351944,97.943985 
	C65.718407,98.710167 65.799225,99.546814 65.693420,100.768402 
	C65.359970,100.107040 65.213135,99.060745 65.351944,97.943985 
z"/>
<path fill="#414141" opacity="1.000000" stroke="none" 
	d="
M65.343430,84.901825 
	C65.731079,85.379387 65.823753,85.886757 65.776215,86.761627 
	C65.440147,86.396622 65.244293,85.664124 65.343430,84.901825 
z"/>
<path fill="#242424" opacity="1.000000" stroke="none" 
	d="
M130.678513,92.001823 
	C130.436066,91.405586 130.455444,90.773003 130.808090,90.091217 
	C131.074341,90.683174 131.007355,91.324326 130.678513,92.001823 
z"/>
<path fill="#242424" opacity="1.000000" stroke="none" 
	d="
M131.490479,87.872185 
	C131.351685,87.680779 131.389954,87.366432 131.707123,87.008148 
	C131.978729,87.266022 131.872559,87.527695 131.490479,87.872185 
z"/>
</svg>